<svg width="6px" height="6px" viewBox="0 0 6 6" version="1.1" xmlns="http://www.w3.org/2000/svg"><g id="Page-1" stroke="none" stroke-width="1" fill="none" fill-rule="evenodd" opacity="0.400948661"><g id="Sale-filter-" transform="translate(-286.000000, -372.000000)" fill="#817F96"><g id="Group-2-Copy-3" transform="translate(286.000000, 372.000000)"><path d="M-1.9,2.4 L3.1,2.4 C3.37614237,2.4 3.6,2.62385763 3.6,2.9 L3.6,3.1 C3.6,3.37614237 3.37614237,3.6 3.1,3.6 L-1.9,3.6 C-2.17614237,3.6 -2.4,3.37614237 -2.4,3.1 L-2.4,2.9 C-2.4,2.62385763 -2.17614237,2.4 -1.9,2.4 Z" id="Rectangle-Copy-11" transform="translate(0.600000, 3.000000) rotate(-270.000000) translate(-0.600000, -3.000000) "></path><path d="M0.5,2.4 L5.5,2.4 C5.77614237,2.4 6,2.62385763 6,2.9 L6,3.1 C6,3.37614237 5.77614237,3.6 5.5,3.6 L0.5,3.6 C0.223857625,3.6 3.38176876e-17,3.37614237 0,3.1 L-1.11022302e-16,2.9 C-1.4483999e-16,2.62385763 0.223857625,2.4 0.5,2.4 Z" id="Rectangle-Copy-12" transform="translate(3.000000, 3.000000) rotate(-270.000000) translate(-3.000000, -3.000000) "></path><path d="M2.9,2.4 L7.9,2.4 C8.17614237,2.4 8.4,2.62385763 8.4,2.9 L8.4,3.1 C8.4,3.37614237 8.17614237,3.6 7.9,3.6 L2.9,3.6 C2.62385763,3.6 2.4,3.37614237 2.4,3.1 L2.4,2.9 C2.4,2.62385763 2.62385763,2.4 2.9,2.4 Z" id="Rectangle-Copy-13" transform="translate(5.400000, 3.000000) rotate(-270.000000) translate(-5.400000, -3.000000) "></path></g></g></g></svg>