<svg width="15" height="12" viewBox="0 0 15 12" fill="none" xmlns="http://www.w3.org/2000/svg">
<path d="M11.8738 4.37459V1.47011C11.8737 1.39802 11.8433 1.32758 11.787 1.27465C11.7306 1.22154 11.6529 1.19069 11.5707 1.19059C11.5707 1.19059 11.5706 1.19059 11.5706 1.19059L11.5707 1.09059L11.8738 4.37459ZM11.8738 4.37459H11.4792V3.63448V3.63437C11.4789 3.38486 11.3735 3.14694 11.1881 2.97245C11.003 2.79814 10.7532 2.70106 10.4938 2.70079H10.4937H8.75848L8.75837 2.70079C8.499 2.70106 8.24922 2.79812 8.06409 2.97239C7.87876 3.14685 7.77328 3.38473 7.77298 3.63422V3.63434V4.37445H7.37746V3.63434V3.63422C7.37715 3.38474 7.27169 3.14687 7.08637 2.97241C6.90126 2.79814 6.65149 2.70108 6.39213 2.70079H6.39202H4.6568L4.65669 2.70079C4.39732 2.70106 4.14754 2.79812 3.96241 2.97239C3.77708 3.14685 3.67161 3.38473 3.67131 3.63422V3.63434V4.37445M11.8738 4.37459L3.67131 4.37445M3.67131 4.37445H3.27673V1.47011C3.27681 1.39802 3.30722 1.32758 3.36345 1.27465C3.41989 1.22153 3.49762 1.19067 3.57988 1.19059L3.67131 4.37445ZM13.7719 4.37459H13.7718H12.4192V1.46999V1.46987C12.419 1.25457 12.328 1.04946 12.1683 0.899173C12.0089 0.749074 11.7939 0.665615 11.5708 0.665381H11.5707L3.57977 0.665381L3.57967 0.665381C3.35662 0.665615 3.14165 0.749074 2.98219 0.899173C2.82254 1.04946 2.73151 1.25457 2.73126 1.46987V1.46999V4.37459L1.37865 4.37459L1.37855 4.37459C1.11919 4.37486 0.869403 4.47191 0.684273 4.64618C0.498939 4.82064 0.393465 5.05851 0.393164 5.308V5.30812V10.8308C0.393164 10.9025 0.423461 10.9699 0.475214 11.0186C0.52676 11.0671 0.59545 11.0934 0.665898 11.0934C0.736346 11.0934 0.805035 11.0671 0.856583 11.0186C0.908334 10.9699 0.938632 10.9025 0.938632 10.8308V8.69068H14.2119V10.8308C14.2119 10.9025 14.2422 10.9699 14.2939 11.0186C14.3455 11.0671 14.4142 11.0934 14.4846 11.0934C14.555 11.0934 14.6237 11.0671 14.6753 11.0186C14.727 10.9699 14.7573 10.9025 14.7573 10.8308V5.30812V5.308C14.757 5.05851 14.6516 4.82063 14.4662 4.64618C14.2811 4.47191 14.0313 4.37486 13.7719 4.37459ZM8.31851 4.37458V3.63457C8.3186 3.52828 8.36344 3.42505 8.44534 3.34792C8.52745 3.2706 8.64001 3.22613 8.75859 3.22599H10.4935C10.6121 3.22612 10.7247 3.27057 10.8068 3.34786C10.8887 3.42497 10.9335 3.52818 10.9337 3.63446V4.37446L8.31851 4.37458ZM4.21677 4.37458V3.63457C4.21687 3.52827 4.26171 3.42503 4.34362 3.3479C4.42574 3.27058 4.53831 3.22612 4.6569 3.22599H6.39192C6.51049 3.22612 6.62304 3.27057 6.70516 3.34786C6.78707 3.42497 6.83192 3.52818 6.83205 3.63446V4.37446L4.21677 4.37458ZM1.37876 4.89979H13.7717C13.8903 4.89992 14.0029 4.94437 14.085 5.02166C14.1669 5.09876 14.2117 5.20196 14.2119 5.30824V7.13591H0.938632V5.3082C0.938777 5.20194 0.983631 5.09875 1.06553 5.02166C1.14764 4.94437 1.26019 4.89992 1.37876 4.89979ZM0.938632 8.16548V7.66111H14.2119V8.16548H0.938632Z" fill="#3C3C3B" stroke="#3C3C3B" stroke-width="0.2"/>
</svg>
