<svg width="16" height="19" viewBox="0 0 16 19" fill="none" xmlns="http://www.w3.org/2000/svg">
<path d="M12.9889 13.4004L7.68555 18.7038L2.38222 13.4004C1.33333 12.3515 0.619036 11.0152 0.329654 9.56031C0.0402722 8.10546 0.188803 6.59746 0.756463 5.22702C1.32412 3.85658 2.28542 2.68525 3.51878 1.86114C4.75215 1.03703 6.20219 0.597168 7.68555 0.597168C9.16891 0.597168 10.619 1.03703 11.8523 1.86114C13.0857 2.68525 14.047 3.85658 14.6146 5.22702C15.1823 6.59746 15.3308 8.10546 15.0414 9.56031C14.7521 11.0152 14.0378 12.3515 12.9889 13.4004ZM7.68555 11.4304C8.56961 11.4304 9.41745 11.0792 10.0426 10.4541C10.6677 9.82901 11.0189 8.98116 11.0189 8.0971C11.0189 7.21305 10.6677 6.3652 10.0426 5.74008C9.41745 5.11496 8.56961 4.76377 7.68555 4.76377C6.8015 4.76377 5.95365 5.11496 5.32853 5.74008C4.70341 6.3652 4.35222 7.21305 4.35222 8.0971C4.35222 8.98116 4.70341 9.82901 5.32853 10.4541C5.95365 11.0792 6.8015 11.4304 7.68555 11.4304ZM7.68555 9.76377C7.24352 9.76377 6.8196 9.58818 6.50704 9.27561C6.19448 8.96305 6.01888 8.53913 6.01888 8.0971C6.01888 7.65508 6.19448 7.23115 6.50704 6.91859C6.8196 6.60603 7.24352 6.43044 7.68555 6.43044C8.12758 6.43044 8.5515 6.60603 8.86406 6.91859C9.17662 7.23115 9.35222 7.65508 9.35222 8.0971C9.35222 8.53913 9.17662 8.96305 8.86406 9.27561C8.5515 9.58818 8.12758 9.76377 7.68555 9.76377Z" fill="#282828"/>
</svg>
