<svg width="163" height="32" viewBox="0 0 163 32" fill="none" xmlns="http://www.w3.org/2000/svg">
<path d="M7.94862 22.5191C7.94862 23.3937 8.08182 23.9961 8.35442 24.3232C8.62392 24.6535 9.09478 24.8186 9.7639 24.8186V25.4883C7.43439 25.4026 5.901 25.3598 5.16684 25.3598C4.43267 25.3598 2.81565 25.4026 0.30957 25.4883V24.8186C0.978684 24.8186 1.44644 24.6535 1.71905 24.3232C1.98855 23.993 2.12485 23.3906 2.12485 22.5191V4.33447C2.12485 3.35598 1.98855 2.64045 1.71905 2.19402C1.44644 1.74758 0.978684 1.5213 0.30957 1.5213V0.851646C0.978684 0.915859 1.6478 0.946437 2.31691 0.946437C4.56278 0.946437 6.44001 0.796606 7.94862 0.5V22.5191Z" fill="#4476DF"/>
<path d="M19.3114 22.5191C19.3114 23.3936 19.4446 23.996 19.7172 24.3232C19.9867 24.6535 20.4576 24.8186 21.1267 24.8186V25.4882C18.7972 25.4026 14.1753 25.4026 11.6724 25.4882V24.8186C12.3415 24.8186 12.8092 24.6535 13.0818 24.3232C13.3513 23.993 13.4876 23.3906 13.4876 22.5191V12.3887C13.4876 11.4102 13.3513 10.6946 13.0818 10.2482C12.8123 9.80177 12.3415 9.57855 11.6724 9.57855V8.9089C12.3632 8.97311 13.0323 9.00369 13.6797 9.00369C15.9256 9.00369 17.8028 8.85386 19.3114 8.55725V22.5191Z" fill="#4476DF"/>
<path d="M37.8451 11.6703C37.5105 11.3615 37.3432 10.9303 37.3432 10.3768C37.3432 9.86619 37.495 9.31273 37.7955 8.71646C36.8445 9.09869 36.1444 9.64297 35.6921 10.3463C36.4914 11.178 36.891 12.2543 36.891 13.5753C36.891 15.2571 36.259 16.5322 34.9982 17.3945C33.7344 18.2568 32.0461 18.6879 29.9303 18.6879C29.5214 18.6879 29.2179 18.6787 29.0227 18.6573C28.462 19.0396 28.1801 19.4891 28.1801 19.9997C28.1801 20.6816 28.5673 21.021 29.3449 21.021H32.486C34.6885 21.021 36.4077 21.3879 37.6499 22.1249C38.8921 22.8587 39.5117 24.0054 39.5117 25.5588C39.5117 26.6657 39.1492 27.6686 38.4275 28.5615C37.7057 29.4574 36.5936 30.1699 35.0943 30.702C33.595 31.234 31.7208 31.5 29.4781 31.5C27.2539 31.5 25.5068 31.2554 24.2336 30.7662C22.9604 30.2769 22.3223 29.5828 22.3223 28.6899C22.3223 28.0723 22.6351 27.5066 23.2609 26.9959C23.8866 26.4853 24.8345 26.0786 26.1108 25.782L26.433 26.2926C25.8506 26.9959 25.5594 27.6778 25.5594 28.3383C25.5594 29.17 25.9435 29.8122 26.7087 30.2708C27.4738 30.7295 28.5487 30.9588 29.9303 30.9588C31.3553 30.9588 32.4488 30.6775 33.217 30.1118C33.9822 29.5461 34.3663 28.797 34.3663 27.8582C34.3663 27.1977 34.1123 26.6718 33.6043 26.2773C33.0962 25.8829 32.2072 25.6872 30.934 25.6872H29.1869C27.7185 25.6872 26.5972 25.412 25.8196 24.8555C25.0421 24.302 24.6549 23.5559 24.6549 22.6172C24.6549 21.764 24.9615 21.0179 25.578 20.3789C26.1944 19.7398 27.0835 19.1435 28.2483 18.5901C26.6065 18.376 25.3178 17.8501 24.3792 17.0092C23.4406 16.1683 22.9697 15.0216 22.9697 13.5753C22.9697 11.8935 23.6016 10.6184 24.8624 9.75611C26.1263 8.89382 27.8146 8.46267 29.9303 8.46267C32.1979 8.46267 33.945 8.93051 35.1748 9.86925C35.5837 9.31579 36.0825 8.87853 36.6648 8.56052C37.2472 8.24251 37.8637 8.08044 38.5111 8.08044C39.2236 8.08044 39.775 8.2792 40.1622 8.6706C40.5494 9.06505 40.7446 9.56959 40.7446 10.1873C40.7446 10.7835 40.5835 11.2575 40.2582 11.6091C39.933 11.9608 39.5241 12.1351 39.0284 12.1351C38.5761 12.132 38.1796 11.9791 37.8451 11.6703ZM30.9185 17.0703C31.1446 16.3793 31.2593 15.2112 31.2593 13.5722C31.2593 11.9333 31.1446 10.7652 30.9185 10.0741C30.6924 9.38306 30.364 9.03447 29.9303 9.03447C29.4997 9.03447 29.1683 9.38 28.9422 10.0741C28.716 10.7682 28.6014 11.9333 28.6014 13.5722C28.6014 15.2143 28.716 16.3793 28.9422 17.0703C29.1683 17.7645 29.4966 18.11 29.9303 18.11C30.3609 18.1069 30.6924 17.7614 30.9185 17.0703Z" fill="#4476DF"/>
<path d="M48.9996 10.8537C49.9723 9.25445 51.6853 8.45637 54.148 8.45637C55.8735 8.45637 57.094 8.8814 57.8065 9.73452C58.1286 10.1167 58.3672 10.6335 58.519 11.2848C58.6707 11.9361 58.7451 12.7923 58.7451 13.8564V22.5161C58.7451 23.3906 58.8783 23.993 59.1509 24.3202C59.4204 24.6504 59.8913 24.8155 60.5604 24.8155V25.4852C58.2309 25.3996 53.7608 25.3996 51.4313 25.4852V24.8155C51.992 24.8155 52.3792 24.6504 52.5961 24.3202C52.8129 23.9899 52.9182 23.3876 52.9182 22.5161V12.1318C52.9182 11.4499 52.7943 10.9454 52.5465 10.6152C52.2987 10.2849 51.8929 10.1198 51.3322 10.1198C50.7064 10.1198 50.1612 10.34 49.6966 10.7742C49.2319 11.2114 48.9996 11.7588 48.9996 12.4193V22.5161C48.9996 23.3906 49.108 23.993 49.3248 24.3202C49.5417 24.6504 49.9289 24.8155 50.4896 24.8155V25.4852C48.3305 25.3996 43.8635 25.3996 41.3605 25.4852V24.8155C42.0296 24.8155 42.4974 24.6504 42.77 24.3202C43.0395 23.9899 43.1758 23.3876 43.1758 22.5161V4.33447C43.1758 3.35598 43.0395 2.64045 42.77 2.19402C42.5005 1.74758 42.0296 1.52436 41.3605 1.52436V0.851646C42.0296 0.915859 42.6988 0.946437 43.3679 0.946437C45.6137 0.946437 47.491 0.796606 48.9996 0.5V10.8537Z" fill="#4476DF"/>
<path d="M69.7181 8.90585H72.8902V9.54493H69.7181V22.8066C69.7181 23.2316 69.7925 23.5313 69.9442 23.7025C70.096 23.8737 70.3439 23.9593 70.6877 23.9593C70.9479 23.9593 71.2391 23.886 71.5613 23.7361C71.8834 23.5863 72.1777 23.3539 72.4348 23.0328L72.9212 23.4151C71.9268 25.0968 70.3965 25.9408 68.3241 25.9408C66.8341 25.9408 65.722 25.5769 64.991 24.8553C64.5387 24.4088 64.2413 23.8554 64.1019 23.1949C63.9625 22.5344 63.8913 21.6079 63.8913 20.4154V9.54493H61.4316V8.90585H63.8913V5.13254C65.056 5.13254 66.1092 5.0194 67.0479 4.79618C67.9865 4.57296 68.8755 4.2152 69.7181 3.72595V8.90585Z" fill="#4476DF"/>
<path d="M81.5391 10.9154C82.5118 9.31622 84.2248 8.51814 86.6876 8.51814C88.413 8.51814 89.6335 8.94317 90.346 9.79629C90.6682 10.1785 90.9067 10.6953 91.0585 11.3466C91.2103 11.9979 91.2846 12.8541 91.2846 13.9182V22.5779C91.2846 23.4524 91.4178 24.0548 91.6904 24.3819C91.9599 24.7122 92.4308 24.8773 93.0999 24.8773V25.547C90.7704 25.4613 86.3003 25.4613 83.9708 25.547V24.8773C84.5315 24.8773 84.9187 24.7122 85.1356 24.3819C85.3524 24.0517 85.4577 23.4493 85.4577 22.5779V12.1936C85.4577 11.5117 85.3338 11.0072 85.086 10.6769C84.8382 10.3467 84.4324 10.1816 83.8717 10.1816C83.246 10.1816 82.7008 10.4017 82.2361 10.8359C81.7714 11.2732 81.5391 11.8205 81.5391 12.481V22.5779C81.5391 23.4524 81.6475 24.0548 81.8644 24.3819C82.0812 24.7122 82.4684 24.8773 83.0291 24.8773V25.547C80.87 25.4613 76.403 25.4613 73.9001 25.547V24.8773C74.5692 24.8773 75.0369 24.7122 75.3095 24.3819C75.579 24.0517 75.7153 23.4493 75.7153 22.5779V4.39624C75.7153 3.41774 75.579 2.70222 75.3095 2.25578C75.04 1.80935 74.5692 1.58613 73.9001 1.58613V0.913413C74.5692 0.977627 75.2383 1.0082 75.9074 1.0082C78.1533 1.0082 80.0305 0.858373 81.5391 0.561768V10.9154Z" fill="#4476DF"/>
<path d="M108.93 10.5784C110.376 11.9514 111.098 14.1835 111.098 17.2719C111.098 20.3603 110.373 22.5863 108.93 23.9501C107.483 25.3139 105.432 25.9958 102.778 25.9958C100.123 25.9958 98.0721 25.3139 96.6255 23.9501C95.1788 22.5863 94.457 20.3603 94.457 17.2719C94.457 14.1835 95.1788 11.9514 96.6255 10.5784C98.0721 9.20546 100.123 8.51746 102.778 8.51746C105.432 8.51746 107.483 9.20546 108.93 10.5784ZM101.126 11.1716C100.718 12.514 100.51 14.5474 100.51 17.275C100.51 20.0025 100.714 22.0329 101.126 23.363C101.535 24.6932 102.087 25.3598 102.778 25.3598C103.468 25.3598 104.02 24.6932 104.429 23.363C104.838 22.0329 105.045 20.0025 105.045 17.275C105.045 14.5474 104.841 12.514 104.429 11.1716C104.02 9.82925 103.468 9.15959 102.778 9.15959C102.087 9.15653 101.535 9.82925 101.126 11.1716Z" fill="#4476DF"/>
<path d="M129.195 22.0667C129.195 23.0482 129.328 23.7607 129.6 24.2071C129.87 24.6536 130.341 24.8768 131.01 24.8768V25.5465C130.341 25.4822 129.672 25.4517 129.003 25.4517C126.757 25.4517 124.879 25.6015 123.371 25.8981V23.5986C122.398 25.1979 120.685 25.9959 118.222 25.9959C116.494 25.9959 115.276 25.5709 114.564 24.7178C114.242 24.3356 114.003 23.8188 113.851 23.1675C113.7 22.5192 113.625 21.66 113.625 20.5959V12.4499C113.625 11.4714 113.489 10.7559 113.22 10.3095C112.95 9.86305 112.479 9.63983 111.81 9.63983V8.6644C112.479 8.72861 117.941 8.91819 119.449 8.61853V22.3266C119.449 23.0085 119.573 23.513 119.821 23.8433C120.069 24.1735 120.474 24.3386 121.035 24.3386C121.661 24.3386 122.206 24.1215 122.671 23.6843C123.135 23.247 123.368 22.6997 123.368 22.0392V12.4499C123.368 11.4714 123.231 10.7559 122.962 10.3095C122.692 9.86305 122.222 9.63983 121.552 9.63983V8.6644C122.222 8.72861 127.683 8.91819 129.192 8.61853V22.0667H129.195Z" fill="#4476DF"/>
<path d="M141.447 8.78979C142.19 8.9702 142.757 9.16896 143.147 9.37994C143.386 9.50837 143.578 9.57258 143.73 9.57258C144.182 9.57258 144.451 9.23317 144.538 8.55128H145.185C145.099 9.6582 145.055 11.5754 145.055 14.303H144.408C144.234 12.8964 143.832 11.71 143.194 10.7407C142.556 9.77134 141.635 9.28821 140.424 9.28821C139.885 9.28821 139.43 9.44721 139.064 9.76828C138.696 10.0863 138.513 10.5236 138.513 11.077C138.513 11.7803 138.751 12.4041 139.225 12.9453C139.699 13.4896 140.446 14.1562 141.459 14.9421C141.502 14.9635 141.815 15.2081 142.398 15.6759C143.606 16.6575 144.492 17.5228 145.052 18.2812C145.613 19.0364 145.895 19.9691 145.895 21.076C145.895 22.0147 145.604 22.8617 145.021 23.617C144.439 24.3723 143.646 24.9594 142.642 25.3752C141.639 25.7911 140.542 25.999 139.356 25.999C137.996 25.999 136.884 25.733 136.022 25.2009C135.654 25.0083 135.353 24.8707 135.115 24.7851C134.876 24.6995 134.641 24.6567 134.402 24.6567C133.993 24.6567 133.69 25.0297 133.495 25.7758H132.847C132.934 24.5619 132.977 22.4306 132.977 19.385H133.625C133.82 21.131 134.294 22.5376 135.05 23.6017C135.806 24.6658 136.753 25.2009 137.9 25.2009C138.439 25.2009 138.888 25.0511 139.244 24.7545C139.6 24.4579 139.777 24.0206 139.777 23.4458C139.777 22.8495 139.653 22.3175 139.405 21.8466C139.157 21.3787 138.854 20.9567 138.497 20.5837C138.141 20.2106 137.565 19.6725 136.766 18.9692C135.858 18.1375 135.167 17.477 134.693 16.9877C134.219 16.4985 133.814 15.9297 133.479 15.2784C133.145 14.6302 132.977 13.9085 132.977 13.1227C132.977 12.2084 133.256 11.3981 133.82 10.6948C134.381 9.9915 135.124 9.45333 136.053 9.08028C136.983 8.70723 137.983 8.5207 139.064 8.5207C139.91 8.51765 140.703 8.60938 141.447 8.78979Z" fill="#4476DF"/>
<path d="M161.566 20.3757L162.118 20.5683C161.644 22.0605 160.838 23.3387 159.704 24.4028C158.571 25.4669 157.121 26.002 155.349 26.002C153.081 26.002 151.269 25.311 149.909 23.9258C148.549 22.5406 147.871 20.3268 147.871 17.2781C147.871 14.361 148.633 12.1716 150.154 10.71C151.675 9.25144 153.689 8.52063 156.192 8.52063C160.271 8.52063 162.31 10.9057 162.31 15.6789H153.958C153.936 15.9358 153.927 16.318 153.927 16.8286C153.927 18.8743 154.29 20.3329 155.011 21.2074C155.733 22.0819 156.613 22.5161 157.651 22.5161C159.224 22.5161 160.532 21.8006 161.566 20.3757ZM153.831 15.0704H157.586C157.607 13.3672 157.483 11.9698 157.214 10.8843C156.944 9.79879 156.529 9.2545 155.969 9.2545C154.757 9.2545 154.045 11.1931 153.831 15.0704Z" fill="#4476DF"/>
<path d="M16.2628 7.52387C14.1192 7.58808 10.1819 3.8637 16.9784 0.524589C17.2231 0.402278 17.2696 0.750866 17.7683 1.39606C18.5706 2.43571 21.6715 7.35875 16.2628 7.52387Z" fill="#4476DF"/>
</svg>
