<svg width="16" height="16" viewBox="0 0 16 16" fill="none" xmlns="http://www.w3.org/2000/svg">
<path d="M0.855469 2.75977L6.10547 0.509766L10.6055 2.75977L15.3327 0.734016C15.3898 0.709553 15.452 0.699642 15.5139 0.705172C15.5757 0.710702 15.6352 0.7315 15.687 0.765699C15.7388 0.799898 15.7814 0.846429 15.8108 0.901114C15.8402 0.955799 15.8555 1.01693 15.8555 1.07902V13.2598L10.6055 15.5098L6.10547 13.2598L1.37822 15.2855C1.32115 15.31 1.25891 15.3199 1.19707 15.3144C1.13523 15.3088 1.07573 15.288 1.02391 15.2538C0.97209 15.2196 0.929573 15.1731 0.900174 15.1184C0.870775 15.0637 0.855414 15.0026 0.855469 14.9405V2.75977ZM10.6055 13.8328V4.39177L10.5567 4.41277L6.10547 2.18677V11.6278L6.15422 11.6068L10.6055 13.8328Z" fill="#282828"/>
</svg>
