<svg width="13" height="13" viewBox="0 0 13 13" fill="none" xmlns="http://www.w3.org/2000/svg">
<path d="M9.39461 11.2194C9.41242 12.0777 8.79592 12.7688 7.91706 12.873C7.37934 12.9367 6.8786 12.8428 6.37787 12.6702C5.37571 12.3236 4.3578 12.0338 3.31249 11.8509C2.75764 11.7537 2.22676 11.618 1.74794 11.3009C1.25885 10.9769 0.965673 10.5316 0.906763 9.95759C0.819768 9.10887 1.11911 8.42044 1.86165 7.96697C2.0377 7.85943 2.24868 7.80258 2.45076 7.74778C3.12548 7.56419 3.69746 7.19909 4.23107 6.76206C4.60097 6.45929 4.95306 6.1298 5.35036 5.86745C5.86138 5.52974 6.52583 5.62153 6.95464 6.07911C7.28823 6.43463 7.46154 6.87303 7.6321 7.31417C7.97186 8.19508 8.39177 9.03078 8.95005 9.79661C9.29529 10.2727 9.409 10.6768 9.39461 11.2194Z" fill="#282828"/>
<path d="M3.33566 3.07624C3.35347 2.41316 3.51034 1.82817 3.92682 1.33634C4.58373 0.560914 5.55164 0.625989 6.10512 1.47813C6.68806 2.37617 6.58257 3.80987 5.87359 4.61064C5.21736 5.35181 4.27274 5.284 3.7268 4.45583C3.47335 4.07292 3.33018 3.55574 3.33566 3.07624Z" fill="#282828"/>
<path d="M10.7365 3.43577C10.681 4.37148 10.3145 5.13115 9.56168 5.68189C9.22123 5.93123 8.83489 6.07097 8.40608 5.99836C7.86219 5.90657 7.47448 5.48187 7.36693 4.89002C7.18061 3.868 7.71834 2.6761 8.60884 2.13906C8.89791 1.96438 9.2089 1.85204 9.54866 1.88698C10.1474 1.94795 10.5666 2.361 10.6844 2.98983C10.7125 3.14053 10.72 3.29466 10.7365 3.43577Z" fill="#282828"/>
<path d="M9.08258 8.37136C9.08395 7.32399 9.84293 6.2732 10.7574 6.00879C11.5479 5.78 12.2247 6.24306 12.2993 7.06438C12.4014 8.18709 11.6123 9.35982 10.5793 9.62149C9.85458 9.80438 9.21342 9.37283 9.11204 8.63234C9.09834 8.53028 9.08875 8.42821 9.08258 8.37136Z" fill="#282828"/>
<path d="M2.98319 5.49758C2.96607 6.03941 2.84962 6.53193 2.51739 6.95184C1.99748 7.61012 1.18986 7.62999 0.635011 6.99979C0.339775 6.66482 0.18017 6.26478 0.121945 5.82775C0.0417996 5.23043 0.112355 4.65434 0.443895 4.13511C0.703511 3.72822 1.05355 3.45833 1.56593 3.47888C1.88514 3.49121 2.14544 3.6378 2.36258 3.86043C2.81194 4.32006 2.96196 4.89341 2.98319 5.49758Z" fill="#282828"/>
</svg>
