<svg width="19" height="19" viewBox="0 0 19 19" fill="none" xmlns="http://www.w3.org/2000/svg">
<path fill-rule="evenodd" clip-rule="evenodd" d="M12.9251 11.9726H12.108L11.8239 11.6906C12.8274 10.5204 13.4377 9.00343 13.4377 7.34134C13.4377 3.64666 10.4428 0.651802 6.74813 0.651802C3.05345 0.651802 0.0585938 3.64666 0.0585938 7.34134C0.0585938 11.036 3.05345 14.0309 6.74813 14.0309C8.41022 14.0309 9.92618 13.4216 11.0963 12.4192L11.3804 12.7012V13.5163L16.5241 18.6528L18.0586 17.1184L12.9251 11.9726ZM6.75001 11.9726C4.19152 11.9726 2.1188 9.89983 2.1188 7.34134C2.1188 4.78388 4.19152 2.71012 6.75001 2.71012C9.30748 2.71012 11.3812 4.78388 11.3812 7.34134C11.3812 9.89983 9.30748 11.9726 6.75001 11.9726Z" fill="#4476DF"/>
</svg>
