<svg width="18" height="19" viewBox="0 0 18 19" fill="none" xmlns="http://www.w3.org/2000/svg">
<path d="M4.69264 13.0026C4.84538 12.5634 5.12864 12.1831 5.50338 11.9142C5.87811 11.6452 6.32586 11.5007 6.78491 11.5007C7.24396 11.5007 7.69172 11.6452 8.06645 11.9142C8.44118 12.1831 8.72444 12.5634 8.87718 13.0026H16.3961V14.5026H8.87718C8.72444 14.9417 8.44118 15.322 8.06645 15.591C7.69172 15.86 7.24396 16.0044 6.78491 16.0044C6.32586 16.0044 5.87811 15.86 5.50338 15.591C5.12864 15.322 4.84538 14.9417 4.69264 14.5026H1.60968V13.0026H4.69264ZM9.12855 7.75257C9.2813 7.31342 9.56456 6.93315 9.93929 6.66416C10.314 6.39518 10.7618 6.25073 11.2208 6.25073C11.6799 6.25073 12.1276 6.39518 12.5024 6.66416C12.8771 6.93315 13.1604 7.31342 13.3131 7.75257H16.3961V9.25257H13.3131C13.1604 9.69172 12.8771 10.072 12.5024 10.341C12.1276 10.61 11.6799 10.7544 11.2208 10.7544C10.7618 10.7544 10.314 10.61 9.93929 10.341C9.56456 10.072 9.2813 9.69172 9.12855 9.25257H1.60968V7.75257H9.12855ZM4.69264 2.50257C4.84538 2.06342 5.12864 1.68315 5.50338 1.41416C5.87811 1.14518 6.32586 1.00073 6.78491 1.00073C7.24396 1.00073 7.69172 1.14518 8.06645 1.41416C8.44118 1.68315 8.72444 2.06342 8.87718 2.50257H16.3961V4.00257H8.87718C8.72444 4.44172 8.44118 4.822 8.06645 5.09098C7.69172 5.35996 7.24396 5.50441 6.78491 5.50441C6.32586 5.50441 5.87811 5.35996 5.50338 5.09098C5.12864 4.822 4.84538 4.44172 4.69264 4.00257H1.60968V2.50257H4.69264ZM6.78491 4.00257C6.98099 4.00257 7.16904 3.92355 7.30769 3.7829C7.44634 3.64225 7.52423 3.45148 7.52423 3.25257C7.52423 3.05366 7.44634 2.86289 7.30769 2.72224C7.16904 2.58159 6.98099 2.50257 6.78491 2.50257C6.58883 2.50257 6.40078 2.58159 6.26213 2.72224C6.12349 2.86289 6.04559 3.05366 6.04559 3.25257C6.04559 3.45148 6.12349 3.64225 6.26213 3.7829C6.40078 3.92355 6.58883 4.00257 6.78491 4.00257ZM11.2208 9.25257C11.4169 9.25257 11.605 9.17355 11.7436 9.0329C11.8822 8.89225 11.9601 8.70148 11.9601 8.50257C11.9601 8.30366 11.8822 8.11289 11.7436 7.97224C11.605 7.83159 11.4169 7.75257 11.2208 7.75257C11.0247 7.75257 10.8367 7.83159 10.698 7.97224C10.5594 8.11289 10.4815 8.30366 10.4815 8.50257C10.4815 8.70148 10.5594 8.89225 10.698 9.0329C10.8367 9.17355 11.0247 9.25257 11.2208 9.25257ZM6.78491 14.5026C6.98099 14.5026 7.16904 14.4236 7.30769 14.2829C7.44634 14.1422 7.52423 13.9515 7.52423 13.7526C7.52423 13.5537 7.44634 13.3629 7.30769 13.2222C7.16904 13.0816 6.98099 13.0026 6.78491 13.0026C6.58883 13.0026 6.40078 13.0816 6.26213 13.2222C6.12349 13.3629 6.04559 13.5537 6.04559 13.7526C6.04559 13.9515 6.12349 14.1422 6.26213 14.2829C6.40078 14.4236 6.58883 14.5026 6.78491 14.5026Z" fill="#282828"/>
</svg>
