<svg width="13" height="16" viewBox="0 0 13 16" fill="none" xmlns="http://www.w3.org/2000/svg">
<path d="M1.14708 5.25529L1.87235 4.83469V10.5717C1.62812 10.5729 1.43052 10.7597 1.43052 10.9899C1.43052 11.2201 1.62812 11.4068 1.87235 11.4081H10.6176C10.8618 11.4068 11.0594 11.2201 11.0594 10.9899C11.0594 10.7597 10.8618 10.5729 10.6176 10.5717V4.83469L11.3429 5.25529C11.4155 5.29743 11.496 5.31747 11.5755 5.31747C11.7245 5.31747 11.8702 5.24679 11.9542 5.11861C12.0828 4.92193 12.0178 4.66437 11.809 4.54315L6.7642 1.61752C6.76003 1.61512 6.75587 1.61273 6.7517 1.61033C6.75043 1.60968 6.74916 1.60892 6.74789 1.60826C6.43043 1.43184 6.04056 1.43489 5.72576 1.61752L5.05973 2.00381V1.50328C5.05973 1.08367 4.69612 0.742249 4.2492 0.742249H3.47986C3.03284 0.742249 2.66934 1.08367 2.66934 1.50328V3.39006L0.680967 4.54326C0.472145 4.66437 0.407127 4.92193 0.535775 5.11861C0.664539 5.31518 0.938146 5.37639 1.14708 5.25529ZM6.65198 10.5716H5.8381V8.65771C5.8381 8.54651 5.93609 8.45601 6.05664 8.45601H6.43344C6.55387 8.45601 6.65198 8.54651 6.65198 8.65771V10.5716ZM9.72911 10.5716H7.54048V8.65771C7.54048 8.08541 7.04382 7.61962 6.43344 7.61962H6.05664C5.44625 7.61962 4.94959 8.08541 4.94959 8.65771V10.5716H2.76085V4.31935L6.19176 2.32965C6.1928 2.329 6.19384 2.32845 6.19489 2.32791C6.21027 2.31963 6.22763 2.3156 6.24498 2.3156C6.26349 2.3156 6.282 2.32029 6.2982 2.32965L9.72911 4.31935V10.5716ZM3.55784 1.57864H4.17123V2.51904L3.55784 2.87483V1.57864Z" fill="#3C3C3B"/>
<path d="M4.95508 4.66577V5.97413C4.95508 6.28058 5.22001 6.52997 5.54556 6.52997H6.94519C7.27074 6.52997 7.53568 6.28058 7.53568 5.97413V4.66577C7.53568 4.3592 7.27074 4.10992 6.94519 4.10992H5.54556C5.22001 4.10992 4.95508 4.3592 4.95508 4.66577ZM5.84358 4.9463H6.64717V5.69359H5.84358V4.9463Z" fill="#3C3C3B"/>
<path d="M11.7926 13.313L10.7826 12.533C10.5929 12.3864 10.3131 12.4124 10.1574 12.5911C10.0018 12.7695 10.0295 13.0331 10.2191 13.1796L10.3869 13.3092H2.16684L2.33459 13.1796C2.52421 13.0331 2.55186 12.7697 2.39626 12.5911C2.24054 12.4124 1.96057 12.3865 1.77095 12.533L0.761092 13.313C0.628627 13.4151 0.552734 13.5662 0.552734 13.7274C0.552734 13.8884 0.628627 14.0395 0.761092 14.1417L1.77095 14.9217C1.85367 14.9855 1.9534 15.0166 2.05254 15.0166C2.18096 15.0166 2.30845 14.9644 2.39626 14.8637C2.55186 14.6851 2.52421 14.4216 2.33459 14.275L2.16684 14.1456H10.3867L10.2191 14.275C10.0294 14.4216 10.0018 14.6851 10.1574 14.8637C10.2453 14.9644 10.3726 15.0166 10.5012 15.0166C10.6003 15.0166 10.7 14.9855 10.7826 14.9217L11.7925 14.1417C11.925 14.0395 12.0009 13.8884 12.0009 13.7274C12.0009 13.5662 11.925 13.4152 11.7926 13.313Z" fill="#3C3C3B"/>
</svg>
